HIERARCHY
ROOT Root
{
  OFFSET 0.0 0.0 0.0
  CHANNELS 6 Xposition Yposition Zposition Zrotation Yrotation Xrotation
  JOINT Hips
  {
    OFFSET 0.0 100.0 0.0
    CHANNELS 6 Xposition Yposition Zposition Zrotation Yrotation Xrotation
    JOINT Spine1
    {
      OFFSET -0.013727 5.003763 -0.053727
      CHANNELS 3 Zrotation Yrotation Xrotation
      JOINT Spine2
      {
        OFFSET -0.0 7.125301 -0.029825
        CHANNELS 3 Zrotation Yrotation Xrotation
        JOINT Chest
        {
          OFFSET -1e-06 7.550063 -0.815971
          CHANNELS 3 Zrotation Yrotation Xrotation
          JOINT Neck1
          {
            OFFSET -0.181677 26.311295 -0.553348
            CHANNELS 3 Zrotation Yrotation Xrotation
            JOINT Neck2
            {
              OFFSET -3e-06 7.709397 2.302585
              CHANNELS 3 Zrotation Yrotation Xrotation
              JOINT Head
              {
                OFFSET -5e-06 6.128916 1.953709
                CHANNELS 3 Zrotation Yrotation Xrotation
                JOINT HeadEnd
                {
                  OFFSET 0.003598 16.065403 -1.835379
                  CHANNELS 3 Zrotation Yrotation Xrotation
                }
                JOINT Jaw
                {
                  OFFSET 0.002637 0.475592 3.094941
                  CHANNELS 3 Zrotation Yrotation Xrotation
                }
                JOINT LeftEye
                {
                  OFFSET 3.206381 5.380205 7.586883
                  CHANNELS 3 Zrotation Yrotation Xrotation
                }
                JOINT RightEye
                {
                  OFFSET -3.22244 5.361869 7.558234
                  CHANNELS 3 Zrotation Yrotation Xrotation
                }
              }
            }
          }
          JOINT LeftShoulder
          {
            OFFSET 1.621652 23.237164 5.113413
            CHANNELS 3 Zrotation Yrotation Xrotation
            JOINT LeftArm
            {
              OFFSET 14.919846 2e-06 -5.502326
              CHANNELS 3 Zrotation Yrotation Xrotation
              JOINT LeftForeArm
              {
                OFFSET 28.739307 0.0 -0.002588
                CHANNELS 3 Zrotation Yrotation Xrotation
                JOINT LeftHand
                {
                  OFFSET 27.093981 -1e-06 0.002609
                  CHANNELS 3 Zrotation Yrotation Xrotation
                  JOINT LeftHandThumb1
                  {
                    OFFSET 2.276482 -1.392045 3.191413
                    CHANNELS 3 Zrotation Yrotation Xrotation
                    JOINT LeftHandThumb2
                    {
                      OFFSET 4.012836 -1.828127 1.641654
                      CHANNELS 3 Zrotation Yrotation Xrotation
                      JOINT LeftHandThumb3
                      {
                        OFFSET 2.798515 0.0 -3e-06
                        CHANNELS 3 Zrotation Yrotation Xrotation
                        JOINT LeftHandThumbEnd
                        {
                          OFFSET 3.180793 -4e-06 4e-06
                          CHANNELS 3 Zrotation Yrotation Xrotation
                        }
                      }
                    }
                  }
                  JOINT LeftHandIndex1
                  {
                    OFFSET 3.247555 -0.531998 2.296169
                    CHANNELS 3 Zrotation Yrotation Xrotation
                    JOINT LeftHandIndex2
                    {
                      OFFSET 6.364578 0.01206 0.1786
                      CHANNELS 3 Zrotation Yrotation Xrotation
                      JOINT LeftHandIndex3
                      {
                        OFFSET 3.662364 0.0 0.0
                        CHANNELS 3 Zrotation Yrotation Xrotation
                        JOINT LeftHandIndex4
                        {
                          OFFSET 2.329242 4e-06 4e-06
                          CHANNELS 3 Zrotation Yrotation Xrotation
                          JOINT LeftHandIndexEnd
                          {
                            OFFSET 2.759615 -0.180537 -0.113024
                            CHANNELS 3 Zrotation Yrotation Xrotation
                          }
                        }
                      }
                    }
                  }
                  JOINT LeftHandMiddle1
                  {
                    OFFSET 3.163495 0.240981 1.000332
                    CHANNELS 3 Zrotation Yrotation Xrotation
                    JOINT LeftHandMiddle2
                    {
                      OFFSET 6.19078 -0.259278 -1.002548
                      CHANNELS 3 Zrotation Yrotation Xrotation
                      JOINT LeftHandMiddle3
                      {
                        OFFSET 4.35652 -4e-06 -1e-06
                        CHANNELS 3 Zrotation Yrotation Xrotation
                        JOINT LeftHandMiddle4
                        {
                          OFFSET 2.996877 -8e-06 0.0
                          CHANNELS 3 Zrotation Yrotation Xrotation
                          JOINT LeftHandMiddleEnd
                          {
                            OFFSET 2.304287 -0.294569 -0.031741
                            CHANNELS 3 Zrotation Yrotation Xrotation
                          }
                        }
                      }
                    }
                  }
                  JOINT LeftHandRing1
                  {
                    OFFSET 2.882643 -0.053652 -0.322543
                    CHANNELS 3 Zrotation Yrotation Xrotation
                    JOINT LeftHandRing2
                    {
                      OFFSET 5.854541 -0.486202 -1.373841
                      CHANNELS 3 Zrotation Yrotation Xrotation
                      JOINT LeftHandRing3
                      {
                        OFFSET 4.350578 0.0 3e-06
                        CHANNELS 3 Zrotation Yrotation Xrotation
                        JOINT LeftHandRing4
                        {
                          OFFSET 2.651321 7e-06 2e-06
                          CHANNELS 3 Zrotation Yrotation Xrotation
                          JOINT LeftHandRingEnd
                          {
                            OFFSET 1.936105 0.077687 -7.1e-05
                            CHANNELS 3 Zrotation Yrotation Xrotation
                          }
                        }
                      }
                    }
                  }
                  JOINT LeftHandPinky1
                  {
                    OFFSET 2.8655 -0.310005 -1.600378
                    CHANNELS 3 Zrotation Yrotation Xrotation
                    JOINT LeftHandPinky2
                    {
                      OFFSET 5.087849 -1.331141 -1.77123
                      CHANNELS 3 Zrotation Yrotation Xrotation
                      JOINT LeftHandPinky3
                      {
                        OFFSET 3.070974 4e-06 0.0
                        CHANNELS 3 Zrotation Yrotation Xrotation
                        JOINT LeftHandPinky4
                        {
                          OFFSET 1.549672 0.0 1e-06
                          CHANNELS 3 Zrotation Yrotation Xrotation
                          JOINT LeftHandPinkyEnd
                          {
                            OFFSET 1.944893 -0.157802 0.057219
                            CHANNELS 3 Zrotation Yrotation Xrotation
                          }
                        }
                      }
                    }
                  }
                }
              }
            }
          }
          JOINT RightShoulder
          {
            OFFSET -1.380118 23.180309 5.214158
            CHANNELS 3 Zrotation Yrotation Xrotation
            JOINT RightArm
            {
              OFFSET -15.037196 1.2e-05 -5.545604
              CHANNELS 3 Zrotation Yrotation Xrotation
              JOINT RightForeArm
              {
                OFFSET -28.736639 2e-06 -0.002597
                CHANNELS 3 Zrotation Yrotation Xrotation
                JOINT RightHand
                {
                  OFFSET -27.133619 -0.0 0.002613
                  CHANNELS 3 Zrotation Yrotation Xrotation
                  JOINT RightHandThumb1
                  {
                    OFFSET -2.274032 -1.383988 3.163127
                    CHANNELS 3 Zrotation Yrotation Xrotation
                    JOINT RightHandThumb2
                    {
                      OFFSET -4.011429 -1.827466 1.640914
                      CHANNELS 3 Zrotation Yrotation Xrotation
                      JOINT RightHandThumb3
                      {
                        OFFSET -2.794935 -4e-06 -3e-06
                        CHANNELS 3 Zrotation Yrotation Xrotation
                        JOINT RightHandThumbEnd
                        {
                          OFFSET -3.183852 4e-06 1e-06
                          CHANNELS 3 Zrotation Yrotation Xrotation
                        }
                      }
                    }
                  }
                  JOINT RightHandIndex1
                  {
                    OFFSET -3.253266 -0.520057 2.282866
                    CHANNELS 3 Zrotation Yrotation Xrotation
                    JOINT RightHandIndex2
                    {
                      OFFSET -6.341917 0.012471 0.178266
                      CHANNELS 3 Zrotation Yrotation Xrotation
                      JOINT RightHandIndex3
                      {
                        OFFSET -3.654871 -8e-06 -0.0
                        CHANNELS 3 Zrotation Yrotation Xrotation
                        JOINT RightHandIndex4
                        {
                          OFFSET -2.327586 0.0 1e-06
                          CHANNELS 3 Zrotation Yrotation Xrotation
                          JOINT RightHandIndexEnd
                          {
                            OFFSET -2.76179 -0.180656 -0.113078
                            CHANNELS 3 Zrotation Yrotation Xrotation
                          }
                        }
                      }
                    }
                  }
                  JOINT RightHandMiddle1
                  {
                    OFFSET -3.168106 0.246593 1.00103
                    CHANNELS 3 Zrotation Yrotation Xrotation
                    JOINT RightHandMiddle2
                    {
                      OFFSET -6.180828 -0.258836 -1.000895
                      CHANNELS 3 Zrotation Yrotation Xrotation
                      JOINT RightHandMiddle3
                      {
                        OFFSET -4.348901 0.0 -0.0
                        CHANNELS 3 Zrotation Yrotation Xrotation
                        JOINT RightHandMiddle4
                        {
                          OFFSET -3.00024 -4e-06 -2e-06
                          CHANNELS 3 Zrotation Yrotation Xrotation
                          JOINT RightHandMiddleEnd
                          {
                            OFFSET -2.30252 -0.29437 -0.031706
                            CHANNELS 3 Zrotation Yrotation Xrotation
                          }
                        }
                      }
                    }
                  }
                  JOINT RightHandRing1
                  {
                    OFFSET -2.88569 -0.067952 -0.308858
                    CHANNELS 3 Zrotation Yrotation Xrotation
                    JOINT RightHandRing2
                    {
                      OFFSET -5.854198 -0.48613 -1.373731
                      CHANNELS 3 Zrotation Yrotation Xrotation
                      JOINT RightHandRing3
                      {
                        OFFSET -4.33881 -4e-06 -0.0
                        CHANNELS 3 Zrotation Yrotation Xrotation
                        JOINT RightHandRing4
                        {
                          OFFSET -2.654903 -4e-06 4e-06
                          CHANNELS 3 Zrotation Yrotation Xrotation
                          JOINT RightHandRingEnd
                          {
                            OFFSET -1.933568 0.077527 -5.2e-05
                            CHANNELS 3 Zrotation Yrotation Xrotation
                          }
                        }
                      }
                    }
                  }
                  JOINT RightHandPinky1
                  {
                    OFFSET -2.866425 -0.342796 -1.584145
                    CHANNELS 3 Zrotation Yrotation Xrotation
                    JOINT RightHandPinky2
                    {
                      OFFSET -5.091371 -1.332055 -1.772385
                      CHANNELS 3 Zrotation Yrotation Xrotation
                      JOINT RightHandPinky3
                      {
                        OFFSET -3.062664 -4e-06 1e-06
                        CHANNELS 3 Zrotation Yrotation Xrotation
                        JOINT RightHandPinky4
                        {
                          OFFSET -1.546529 4e-06 -2e-06
                          CHANNELS 3 Zrotation Yrotation Xrotation
                          JOINT RightHandPinkyEnd
                          {
                            OFFSET -1.945119 -0.157718 0.057211
                            CHANNELS 3 Zrotation Yrotation Xrotation
                          }
                        }
                      }
                    }
                  }
                }
              }
            }
          }
        }
      }
    }
    JOINT LeftLeg
    {
      OFFSET 10.043214 -8.434526 2.595655
      CHANNELS 3 Zrotation Yrotation Xrotation
      JOINT LeftShin
      {
        OFFSET -1e-06 -43.221752 -0.802913
        CHANNELS 3 Zrotation Yrotation Xrotation
        JOINT LeftFoot
        {
          OFFSET 1e-06 -42.155094 -3.481523
          CHANNELS 3 Zrotation Yrotation Xrotation
          JOINT LeftToeBase
          {
            OFFSET 0.0 -5.059472 13.231529
            CHANNELS 3 Zrotation Yrotation Xrotation
            JOINT LeftToeEnd
            {
              OFFSET -0.009607 -1.647619 6.513017
              CHANNELS 3 Zrotation Yrotation Xrotation
            }
          }
        }
      }
    }
    JOINT RightLeg
    {
      OFFSET -10.047278 -8.29526 2.620317
      CHANNELS 3 Zrotation Yrotation Xrotation
      JOINT RightShin
      {
        OFFSET 1e-06 -43.362206 -0.805556
        CHANNELS 3 Zrotation Yrotation Xrotation
        JOINT RightFoot
        {
          OFFSET 2e-06 -42.117393 -3.478398
          CHANNELS 3 Zrotation Yrotation Xrotation
          JOINT RightToeBase
          {
            OFFSET -0.0 -5.079609 13.284196
            CHANNELS 3 Zrotation Yrotation Xrotation
            JOINT RightToeEnd
            {
              OFFSET 0.009532 -1.634378 6.460591
              CHANNELS 3 Zrotation Yrotation Xrotation
            }
          }
        }
      }
    }
  }
}
MOTION
Frames: 5
Frame Time: 0.03333333333333333
0.0 0.0 0.0 0.0 -0.0 0.0 -0.437343 100.650787 1.982994 0.021162 -2.586948 2.177098 0.156772 -0.000139 -2.340332 -0.576878 -0.234111 -6.042777 -2.191276 -2.466024 6.10814 4.735332 0.713517 -2.915891 -0.602808 1.454612 -3.884385 4.426158 -2.04843 -2.283162 7.7e-05 -2.3e-05 6e-06 -0.067767 -0.149757 -0.081909 0.577738 -3.843814 -10.575618 -0.715283 3.53722 -10.617195 17.503136 -11.600304 7.374361 50.667641 5.606066 -63.754696 0.997004 -17.118406 -1.681263 14.256398 -13.480924 -6.834639 -5.882106 9.861286 0.70259 -10.936872 -0.360575 7.156205 1e-06 8.774826 -2e-06 -16.919907 18.657175 4.984337 -1.844033 2.498505 -2.507277 -10.1636 4.678945 4.621109 -20.976023 -3e-06 1e-06 -21.226286 2.451696 -3.594001 -1e-06 -6e-06 -0.0 -1.362682 2.240798 -0.746323 -21.334913 0.58491 3.008322 -13.821215 -2e-06 2e-06 -23.887169 -0.249078 -0.839483 -59.516487 3.13796 -1.668213 -0.294025 1.679688 0.833256 -14.218207 0.093215 1.300581 -34.212048 -0.287563 0.96717 -20.033211 0.964536 1.212843 -1e-06 -1e-06 -0.0 -3.440388 0.788234 0.501655 -15.928185 -3.16731 2.999707 -6.338825 -1e-06 1e-06 -18.123446 3.648184 -4.905671 -4e-06 0.0 -2e-06 -25.641611 12.495176 3.330226 -46.774918 -2.272351 -78.973206 -1.766266 15.614127 -1.421594 -8.081803 2.053272 -8.423257 2.24354 -5.255035 -3.180156 14.282887 -0.826594 6.952503 -2e-06 -12.6906 -0.0 16.820446 -16.508715 2.231874 1.665665 -1.955921 -2.878298 4.727798 -4.170586 4.993923 11.020522 3e-06 0.0 12.109048 -3.735714 -2.866782 1e-06 0.0 0.0 1.291985 -1.928549 -1.498089 14.800122 0.567468 3.865608 14.242564 -1.341737 -6.660654 19.63196 0.143925 -0.648242 49.237675 -1.096641 -6.391377 0.353029 -1.51115 -0.03194 20.222786 3.684308 2.316632 18.78727 4e-06 1e-06 10.751625 -0.479869 1.397907 -1e-06 0.0 -0.0 3.273805 0.305947 -0.58011 21.486807 11.830371 2.266135 8.162924 2e-06 0.0 18.399075 -3.798985 -4.940573 2e-06 0.0 -1e-06 1.751158 6.655288 0.15574 0.017998 -0.113682 1.754924 -3.18377 1.088066 -2.047624 1.687036 -1.808247 -0.29382 0.0 0.0 2e-06 -1.829187 -5.960447 -0.827504 -0.051913 -0.024673 3.337702 3.447134 -2.622585 -4.817976 -1.421664 1.138409 -0.904449 -0.0 0.0 -1e-06 
0.0 0.0 0.0 0.0 -0.0 0.0 -0.443952 100.639389 1.984175 0.036571 -2.497212 2.17905 0.154633 0.021114 -2.35673 -0.572554 -0.233124 -6.037345 -2.239235 -2.472349 6.098323 4.579237 0.746896 -3.026717 -0.595949 1.445635 -3.882565 4.500951 -2.153811 -2.395714 7.8e-05 -2.3e-05 6e-06 -0.069826 -0.151012 -0.08423 0.574974 -3.845104 -10.578809 -0.716867 3.536788 -10.620105 17.460913 -11.690627 7.394576 50.980118 5.501474 -63.599854 0.838195 -16.82004 -1.663134 14.243096 -13.323668 -6.835359 -5.882105 9.861283 0.70259 -10.936873 -0.360576 7.156207 2e-06 8.774824 -0.0 -16.857138 18.639368 5.030828 -1.844032 2.498504 -2.507278 -10.163601 4.678944 4.621109 -20.976021 -4e-06 4e-06 -21.226286 2.451697 -3.593997 -1e-06 -6e-06 -0.0 -1.362681 2.240798 -0.746323 -21.334917 0.584908 3.008325 -13.821215 -3e-06 3e-06 -23.887173 -0.249078 -0.83948 -59.531246 3.134912 -1.703802 -0.294025 1.679687 0.833256 -14.218209 0.093214 1.300582 -34.212048 -0.287563 0.967174 -20.033211 0.964538 1.212846 -0.0 -1e-06 -0.0 -3.440388 0.788233 0.501656 -15.928189 -3.16731 2.999709 -6.338826 -1e-06 2e-06 -18.123449 3.648182 -4.905668 -4e-06 -0.0 -2e-06 -25.677773 12.471324 3.305776 -46.829525 -2.198858 -78.834923 -1.802884 15.440131 -1.429318 -8.109715 2.15501 -8.472828 2.243541 -5.255037 -3.180158 14.282889 -0.826594 6.952504 -2e-06 -12.690605 1e-06 16.808836 -16.497719 2.205024 1.665666 -1.955922 -2.878299 4.727798 -4.170588 4.993925 11.020524 3e-06 -1e-06 12.10905 -3.735716 -2.866785 1e-06 -0.0 0.0 1.291985 -1.92855 -1.49809 14.800127 0.567469 3.865608 14.242572 -1.341736 -6.660659 19.631969 0.143926 -0.648245 49.195988 -1.088856 -6.42519 0.353029 -1.51115 -0.03194 20.222788 3.68431 2.316631 18.78727 4e-06 -0.0 10.751625 -0.479869 1.397906 -1e-06 -0.0 0.0 3.273807 0.305947 -0.580111 21.486813 11.830377 2.266134 8.162926 3e-06 0.0 18.39908 -3.798985 -4.940575 3e-06 0.0 -1e-06 1.761398 6.705619 0.141357 0.011319 -0.130957 1.760671 -3.238927 0.969118 -2.081446 1.688888 -1.829479 -0.321203 0.0 0.0 2e-06 -1.831012 -5.922606 -0.822183 -0.048119 -0.025652 3.326875 3.476069 -2.726559 -4.826012 -1.420639 1.136517 -0.931263 -0.0 0.0 -1e-06 
0.0 0.0 0.0 0.0 -0.0 0.0 -0.439042 100.632751 1.973202 0.056395 -2.414277 2.165724 0.152367 0.03933 -2.359226 -0.567491 -0.238468 -6.03191 -2.273739 -2.483824 6.101126 4.451208 0.780084 -3.122965 -0.585481 1.443855 -3.881598 4.538796 -2.208009 -2.520121 7.8e-05 -2.2e-05 6e-06 -0.069184 -0.145018 -0.085454 0.577461 -3.839947 -10.576336 -0.718289 3.544164 -10.616886 17.464115 -11.783875 7.430617 51.234886 5.477684 -63.46431 0.628926 -16.533129 -1.638146 14.162544 -13.18827 -6.722423 -5.882108 9.86129 0.70259 -10.936873 -0.360575 7.156208 0.0 8.77483 -2e-06 -16.797445 18.639677 5.074539 -1.844033 2.498505 -2.507278 -10.163603 4.678946 4.621109 -20.976028 -3e-06 2e-06 -21.226292 2.451699 -3.594002 -1e-06 -6e-06 -0.0 -1.362682 2.240799 -0.746324 -21.334917 0.58491 3.008324 -13.821218 -2e-06 2e-06 -23.887175 -0.249077 -0.839483 -59.527523 3.127186 -1.725903 -0.294025 1.679688 0.833256 -14.218214 0.093216 1.300581 -34.212059 -0.287563 0.967171 -20.033222 0.964537 1.212843 -0.0 -0.0 -0.0 -3.44039 0.788234 0.501656 -15.928189 -3.167311 2.999709 -6.338828 -1e-06 1e-06 -18.123453 3.648186 -4.905673 -5e-06 -0.0 -2e-06 -25.710922 12.444545 3.290089 -46.909534 -2.134361 -78.727409 -1.750059 15.338957 -1.422753 -8.162655 2.270805 -8.620395 2.243543 -5.255042 -3.18016 14.282903 -0.826595 6.952511 -1e-06 -12.690618 -1e-06 16.837145 -16.501226 2.176844 1.665667 -1.955924 -2.878301 4.727803 -4.170592 4.993928 11.020534 3e-06 -0.0 12.10906 -3.735719 -2.866786 0.0 0.0 0.0 1.291986 -1.928551 -1.49809 14.800144 0.567469 3.865612 14.242584 -1.341738 -6.660663 19.631985 0.143925 -0.648244 49.238552 -1.057578 -6.459995 0.353029 -1.511152 -0.03194 20.222805 3.684313 2.316635 18.787289 4e-06 1e-06 10.751637 -0.47987 1.397908 -1e-06 -0.0 -0.0 3.273809 0.305947 -0.580111 21.486834 11.830389 2.26614 8.162935 3e-06 0.0 18.399096 -3.79899 -4.940578 2e-06 -0.0 -1e-06 1.761064 6.736181 0.142168 0.008462 -0.137642 1.763891 -3.278035 0.880019 -2.111278 1.691341 -1.845426 -0.337371 0.0 0.0 2e-06 -1.844114 -5.910381 -0.807958 -0.046185 -0.029789 3.328846 3.514167 -2.783024 -4.836413 -1.419483 1.131157 -0.931821 -0.0 0.0 -1e-06 
0.0 0.0 0.0 0.0 -0.0 0.0 -0.433226 100.63369 1.946144 0.076499 -2.355608 2.148072 0.146713 0.040992 -2.352006 -0.56045 -0.246999 -6.022301 -2.295229 -2.501617 6.108578 4.370587 0.790261 -3.213441 -0.56703 1.481905 -3.879369 4.546284 -2.233518 -2.622025 7.7e-05 -2.2e-05 6e-06 -0.067205 -0.13406 -0.083616 0.582246 -3.830688 -10.571666 -0.719223 3.557346 -10.611624 17.490068 -11.855982 7.476437 51.45937 5.505346 -63.256863 0.458275 -16.275543 -1.607126 14.030609 -13.102697 -6.517431 -5.882109 9.861286 0.70259 -10.936877 -0.360576 7.156209 2e-06 8.774827 -0.0 -16.745264 18.656235 5.118626 -1.844033 2.498504 -2.507279 -10.163604 4.678945 4.62111 -20.976034 -5e-06 3e-06 -21.226299 2.451695 -3.594 -1e-06 -5e-06 -0.0 -1.362682 2.240798 -0.746324 -21.334923 0.584907 3.008324 -13.821218 -4e-06 2e-06 -23.887178 -0.249081 -0.839481 -59.514103 3.131263 -1.731308 -0.294025 1.679688 0.833256 -14.218217 0.093213 1.30058 -34.212067 -0.287567 0.967173 -20.033226 0.964535 1.212847 -0.0 -0.0 -0.0 -3.44039 0.788234 0.501656 -15.928198 -3.167312 2.999708 -6.33883 -2e-06 1e-06 -18.123457 3.648182 -4.905672 -4e-06 -0.0 -2e-06 -25.692839 12.430462 3.330306 -47.048981 -2.144082 -78.653229 -1.583162 15.320292 -1.401569 -8.22506 2.404059 -8.752336 2.243543 -5.255039 -3.180159 14.282902 -0.826596 6.952505 -1e-06 -12.690609 0.0 16.848238 -16.503214 2.155828 1.665668 -1.955922 -2.8783 4.727802 -4.170589 4.993925 11.020535 2e-06 -1e-06 12.10906 -3.735717 -2.866786 0.0 -0.0 0.0 1.291987 -1.92855 -1.49809 14.800139 0.567467 3.865608 14.24258 -1.341737 -6.660661 19.631983 0.143925 -0.648246 49.288723 -1.028987 -6.482917 0.353029 -1.511151 -0.03194 20.222803 3.68431 2.31663 18.787287 5e-06 -2e-06 10.751635 -0.479869 1.397906 -1e-06 -0.0 -0.0 3.273809 0.305946 -0.580111 21.486828 11.830379 2.266132 8.162934 1e-06 -2e-06 18.399096 -3.798986 -4.94058 3e-06 0.0 -0.0 1.754613 6.724879 0.142225 0.009865 -0.128936 1.771773 -3.291809 0.815866 -2.125395 1.693226 -1.848926 -0.367331 0.0 0.0 2e-06 -1.863121 -5.918554 -0.797886 -0.045004 -0.026429 3.331336 3.562168 -2.816021 -4.826982 -1.418157 1.125988 -0.945876 -0.0 0.0 -1e-06 
0.0 0.0 0.0 0.0 -0.0 0.0 -0.428372 100.638435 1.915694 0.096947 -2.319345 2.121688 0.137575 0.022673 -2.331016 -0.560797 -0.260458 -6.012168 -2.293445 -2.520523 6.118905 4.323612 0.782415 -3.265061 -0.52821 1.532369 -3.873989 4.523234 -2.216046 -2.739171 7.7e-05 -2.2e-05 6e-06 -0.063252 -0.118511 -0.082474 0.588578 -3.817443 -10.570247 -0.717669 3.574993 -10.610662 17.561613 -11.902354 7.505647 51.61293 5.544684 -63.040871 0.295401 -16.081543 -1.568967 13.826044 -13.089636 -6.218257 -5.882114 9.861295 0.702589 -10.936888 -0.360577 7.156212 0.0 8.774833 -2e-06 -16.704988 18.677336 5.153619 -1.844035 2.498507 -2.50728 -10.163613 4.678948 4.621111 -20.976055 -5e-06 2e-06 -21.226316 2.451698 -3.594003 -1e-06 -6e-06 0.0 -1.362683 2.240801 -0.746324 -21.334946 0.584908 3.008325 -13.821237 -4e-06 1e-06 -23.887205 -0.249081 -0.839483 -59.494713 3.159379 -1.735173 -0.294025 1.679688 0.833256 -14.218227 0.093214 1.300581 -34.212101 -0.287568 0.967171 -20.033245 0.964535 1.212845 -0.0 -1e-06 -0.0 -3.440393 0.788233 0.501655 -15.928209 -3.167315 2.999709 -6.338834 -2e-06 1e-06 -18.12347 3.648184 -4.905677 -5e-06 0.0 -2e-06 -25.636196 12.450715 3.385615 -47.214447 -2.200264 -78.622658 -1.327889 15.446208 -1.391881 -8.283791 2.580226 -8.840063 2.243543 -5.255041 -3.180159 14.282902 -0.826595 6.952507 -0.0 -12.690614 -2e-06 16.853149 -16.478971 2.126142 1.665667 -1.955923 -2.878299 4.727803 -4.170591 4.993925 11.020535 2e-06 0.0 12.10906 -3.735719 -2.866785 2e-06 -0.0 -0.0 1.291986 -1.928551 -1.49809 14.800139 0.567469 3.865609 14.242582 -1.341739 -6.660659 19.631977 0.143924 -0.648243 49.330002 -1.014992 -6.496573 0.353029 -1.511152 -0.03194 20.222809 3.684313 2.316633 18.787291 4e-06 -0.0 10.751638 -0.479868 1.397907 -1e-06 -0.0 -0.0 3.27381 0.305947 -0.580111 21.486832 11.830385 2.266138 8.162933 2e-06 -0.0 18.399097 -3.798987 -4.940579 3e-06 0.0 -1e-06 1.745004 6.700047 0.141135 0.009159 -0.11108 1.791927 -3.299782 0.788156 -2.128011 1.69561 -1.849297 -0.387894 0.0 0.0 2e-06 -1.890004 -5.962089 -0.791419 -0.040805 -0.02483 3.348822 3.616788 -2.795074 -4.813337 -1.416911 1.120552 -0.942733 -0.0 0.0 -1e-06 
